<svg width="32" height="32" viewBox="0 0 32 32" fill="none" xmlns="http://www.w3.org/2000/svg">
<rect width="32" height="32" rx="3" fill="black"/>
<rect x="5.33337" y="17.0667" width="2.13333" height="2.13333" fill="white"/>
<rect x="5.33337" y="7.46667" width="2.13333" height="2.13333" fill="white"/>
<rect x="7.46667" y="7.46667" width="2.13333" height="2.13333" fill="white"/>
<rect x="9.6001" y="9.60001" width="2.13333" height="2.13333" fill="white"/>
<rect x="9.6001" y="13.8667" width="2.13333" height="2.13333" fill="white"/>
<rect x="7.46667" y="14.9333" width="2.13333" height="2.13333" fill="white"/>
<rect x="7.46667" y="9.60001" width="2.13333" height="2.13333" fill="white"/>
<rect x="9.6001" y="11.7333" width="2.13333" height="2.13333" fill="white"/>
<rect x="9.6001" y="16" width="2.13333" height="2.13333" fill="white"/>
<rect x="7.46667" y="17.0667" width="2.13333" height="2.13333" fill="white"/>
<rect x="11.7334" y="11.7333" width="2.13333" height="2.13333" fill="white"/>
<rect x="11.7334" y="13.8667" width="2.13333" height="2.13333" fill="white"/>
<rect x="13.8667" y="12.8" width="2.13333" height="2.13333" fill="white"/>
<rect x="16" y="22.4" width="2.13333" height="2.13333" fill="white"/>
<rect x="18.1333" y="22.4" width="2.13333" height="2.13333" fill="white"/>
<rect x="20.2667" y="22.4" width="2.13333" height="2.13333" fill="white"/>
<rect x="22.4" y="22.4" width="2.13333" height="2.13333" fill="white"/>
<rect x="24.5333" y="22.4" width="2.13333" height="2.13333" fill="white"/>
</svg>
