<svg width="20" height="20" viewBox="0 0 20 20" fill="none" xmlns="http://www.w3.org/2000/svg">
<path d="M3.33331 15C3.33331 14.1159 3.6845 13.2681 4.30962 12.6429C4.93474 12.0178 5.78259 11.6666 6.66665 11.6666H13.3333C14.2174 11.6666 15.0652 12.0178 15.6903 12.6429C16.3155 13.2681 16.6666 14.1159 16.6666 15C16.6666 15.442 16.4911 15.8659 16.1785 16.1785C15.8659 16.491 15.442 16.6666 15 16.6666H4.99998C4.55795 16.6666 4.13403 16.491 3.82147 16.1785C3.50891 15.8659 3.33331 15.442 3.33331 15Z" stroke="current" stroke-width="1.5" stroke-linejoin="round"/>
<path d="M10 8.33331C11.3807 8.33331 12.5 7.21402 12.5 5.83331C12.5 4.4526 11.3807 3.33331 10 3.33331C8.61929 3.33331 7.5 4.4526 7.5 5.83331C7.5 7.21402 8.61929 8.33331 10 8.33331Z" stroke="current" stroke-width="1.5"/>
</svg>
