<svg width="28" height="28" viewBox="0 0 28 28" fill="none" xmlns="http://www.w3.org/2000/svg">
<g id="basil:arrow-right-solid">
<path id="Vector" d="M15.7152 9.95173C15.5606 9.78586 15.4765 9.56647 15.4805 9.33979C15.4845 9.1131 15.5763 8.89682 15.7366 8.73651C15.8969 8.57619 16.1132 8.48436 16.3399 8.48036C16.5666 8.47636 16.786 8.5605 16.9518 8.71506L21.6185 13.3817C21.7824 13.5458 21.8744 13.7682 21.8744 14.0001C21.8744 14.2319 21.7824 14.4543 21.6185 14.6184L16.9518 19.2851C16.8717 19.371 16.7751 19.44 16.6678 19.4878C16.5605 19.5356 16.4446 19.5613 16.3271 19.5634C16.2096 19.5655 16.0929 19.5439 15.984 19.4999C15.875 19.4559 15.776 19.3904 15.693 19.3073C15.6099 19.2242 15.5444 19.1252 15.5004 19.0163C15.4563 18.9073 15.4347 18.7906 15.4368 18.6731C15.4389 18.5556 15.4646 18.4398 15.5124 18.3324C15.5602 18.2251 15.6292 18.1285 15.7152 18.0484L18.8885 14.8751H7.5835C7.35143 14.8751 7.12887 14.7829 6.96478 14.6188C6.80068 14.4547 6.7085 14.2321 6.7085 14.0001C6.7085 13.768 6.80068 13.5454 6.96478 13.3813C7.12887 13.2173 7.35143 13.1251 7.5835 13.1251H18.8885L15.7152 9.95173Z" fill="current"/>
</g>
</svg>
