<svg width="70" height="70" viewBox="0 0 70 70" fill="none" xmlns="http://www.w3.org/2000/svg">
<path d="M12.5302 34.9999L37.2985 9.54614C37.5024 9.34102 37.6636 9.09749 37.7728 8.82964C37.882 8.5618 37.937 8.27497 37.9346 7.98573C37.9322 7.6965 37.8724 7.41062 37.7588 7.14463C37.6452 6.87864 37.48 6.63782 37.2727 6.43611C37.0654 6.2344 36.8201 6.0758 36.5511 5.9695C36.2821 5.8632 35.9947 5.8113 35.7055 5.8168C35.4163 5.82231 35.1311 5.88511 34.8663 6.00158C34.6016 6.11804 34.3625 6.28586 34.1631 6.49531L7.91307 33.4745C7.51576 33.8829 7.29346 34.4301 7.29346 34.9999C7.29346 35.5697 7.51576 36.1169 7.91307 36.5253L34.1631 63.5045C34.3625 63.7139 34.6016 63.8817 34.8663 63.9982C35.1311 64.1147 35.4163 64.1775 35.7055 64.183C35.9947 64.1885 36.2821 64.1366 36.5511 64.0303C36.8201 63.924 37.0654 63.7654 37.2727 63.5637C37.48 63.362 37.6452 63.1212 37.7588 62.8552C37.8724 62.5892 37.9322 62.3033 37.9346 62.0141C37.937 61.7248 37.882 61.438 37.7728 61.1701C37.6636 60.9023 37.5024 60.6588 37.2985 60.4536L12.5302 34.9999Z" fill="current"/>
</svg>
