<svg width="20" height="20" viewBox="0 0 20 20" fill="none" xmlns="http://www.w3.org/2000/svg">
<path d="M18.4016 11.7352C17.8969 13.3828 16.8854 14.8293 15.511 15.8688C14.3043 16.7769 12.8684 17.3308 11.3644 17.4683C9.86047 17.6057 8.34795 17.3212 6.99667 16.6468C5.64538 15.9724 4.50881 14.9347 3.71452 13.6502C2.92024 12.3657 2.49967 10.8852 2.50004 9.375C2.49461 7.61223 3.06766 5.89636 4.13129 4.49063C5.17077 3.11625 6.61725 2.10472 8.26488 1.6C8.37347 1.56657 8.48913 1.56336 8.5994 1.59074C8.70968 1.61812 8.81041 1.67504 8.89075 1.75538C8.97109 1.83573 9.02802 1.93646 9.05539 2.04673C9.08277 2.15701 9.07957 2.27266 9.04613 2.38125C8.68585 3.57299 8.65564 4.84015 8.95873 6.04771C9.26181 7.25526 9.88683 8.35797 10.7672 9.23832C11.6475 10.1187 12.7502 10.7437 13.9578 11.0468C15.1654 11.3499 16.4325 11.3197 17.6243 10.9594C17.7328 10.9259 17.8485 10.9227 17.9588 10.9501C18.0691 10.9775 18.1698 11.0344 18.2501 11.1148C18.3305 11.1951 18.3874 11.2958 18.4148 11.4061C18.4421 11.5164 18.4389 11.632 18.4055 11.7406L18.4016 11.7352Z" fill="current"/>
</svg>
