<svg width="20" height="20" viewBox="0 0 20 20" fill="none" xmlns="http://www.w3.org/2000/svg">
<path d="M6.66665 5.83333V12.5C6.66665 13.4205 7.41284 14.1667 8.33331 14.1667H13.3333M6.66665 5.83333V4.16667C6.66665 3.24619 7.41284 2.5 8.33331 2.5H12.1548C12.3758 2.5 12.5878 2.5878 12.7441 2.74408L16.4226 6.42259C16.5788 6.57887 16.6666 6.79083 16.6666 7.01184V12.5C16.6666 13.4205 15.9205 14.1667 15 14.1667H13.3333M6.66665 5.83333H5.33331C4.22874 5.83333 3.33331 6.72876 3.33331 7.83333V15.8333C3.33331 16.7538 4.07951 17.5 4.99998 17.5H11.3333C12.4379 17.5 13.3333 16.6046 13.3333 15.5V14.1667" stroke="current" stroke-width="1.5" stroke-linecap="round" stroke-linejoin="round"/>
</svg>
