<svg width="70" height="70" viewBox="0 0 70 70" fill="none" xmlns="http://www.w3.org/2000/svg">
<path d="M57.4698 35.0001L32.7015 60.4539C32.4976 60.659 32.3364 60.9025 32.2272 61.1704C32.118 61.4382 32.063 61.725 32.0654 62.0143C32.0678 62.3035 32.1276 62.5894 32.2412 62.8554C32.3548 63.1214 32.52 63.3622 32.7273 63.5639C32.9346 63.7656 33.1799 63.9242 33.4489 64.0305C33.7179 64.1368 34.0053 64.1887 34.2945 64.1832C34.5837 64.1777 34.8689 64.1149 35.1337 63.9984C35.3984 63.882 35.6375 63.7141 35.8369 63.5047L62.0869 36.5255C62.4842 36.1171 62.7065 35.5699 62.7065 35.0001C62.7065 34.4303 62.4842 33.8831 62.0869 33.4747L35.8369 6.49552C35.6375 6.28607 35.3984 6.11825 35.1337 6.00179C34.8689 5.88532 34.5837 5.82252 34.2945 5.81702C34.0053 5.81151 33.7179 5.86341 33.4489 5.96971C33.1799 6.07602 32.9347 6.23461 32.7273 6.43632C32.52 6.63803 32.3548 6.87885 32.2412 7.14484C32.1276 7.41083 32.0678 7.69671 32.0654 7.98594C32.063 8.27518 32.118 8.56201 32.2272 8.82986C32.3364 9.0977 32.4976 9.34123 32.7015 9.54636L57.4698 35.0001Z" fill="current"/>
</svg>
