<svg width="21" height="20" viewBox="0 0 21 20" fill="none" xmlns="http://www.w3.org/2000/svg">
<g clip-path="url(#clip0_33_35)">
<path d="M10.5 15.8334C10.7041 15.8334 10.9011 15.9083 11.0537 16.044C11.2062 16.1796 11.3036 16.3665 11.3275 16.5692L11.3333 16.6667V17.5C11.3331 17.7124 11.2518 17.9167 11.106 18.0712C10.9602 18.2256 10.7609 18.3185 10.5489 18.331C10.3368 18.3434 10.128 18.2745 9.96515 18.1381C9.80227 18.0018 9.6976 17.8084 9.67251 17.5975L9.66668 17.5V16.6667C9.66668 16.4457 9.75448 16.2337 9.91076 16.0774C10.067 15.9212 10.279 15.8334 10.5 15.8334ZM15.7608 14.0917L15.8392 14.1609L16.4225 14.7442C16.572 14.8942 16.6587 15.0954 16.6652 15.307C16.6717 15.5186 16.5973 15.7248 16.4573 15.8836C16.3173 16.0424 16.1221 16.1419 15.9113 16.162C15.7005 16.1821 15.49 16.1212 15.3225 15.9917L15.2442 15.9225L14.6608 15.3392C14.517 15.1956 14.4306 15.0045 14.4179 14.8017C14.4051 14.5989 14.4669 14.3984 14.5916 14.238C14.7163 14.0776 14.8954 13.9682 15.095 13.9305C15.2947 13.8929 15.5012 13.9294 15.6758 14.0334L15.7608 14.0917ZM6.33918 14.1609C6.48266 14.3043 6.56885 14.4953 6.58159 14.6978C6.59432 14.9003 6.53272 15.1005 6.40835 15.2609L6.33918 15.3392L5.75585 15.9225C5.60588 16.072 5.40465 16.1587 5.19303 16.1652C4.9814 16.1717 4.77525 16.0973 4.61645 15.9573C4.45764 15.8173 4.35809 15.6221 4.33801 15.4113C4.31794 15.2005 4.37884 14.99 4.50835 14.8225L4.57751 14.7442L5.16085 14.1609C5.31712 14.0046 5.52904 13.9169 5.75001 13.9169C5.97098 13.9169 6.18291 14.0046 6.33918 14.1609ZM3.83335 9.16669C4.04575 9.16692 4.25004 9.24825 4.40449 9.39406C4.55893 9.53987 4.65187 9.73915 4.66432 9.95118C4.67677 10.1632 4.60778 10.372 4.47146 10.5349C4.33513 10.6978 4.14176 10.8024 3.93085 10.8275L3.83335 10.8334H3.00001C2.78761 10.8331 2.58332 10.7518 2.42887 10.606C2.27443 10.4602 2.18148 10.2609 2.16904 10.0489C2.15659 9.83682 2.22557 9.62804 2.3619 9.46516C2.49823 9.30228 2.6916 9.19761 2.90251 9.17252L3.00001 9.16669H3.83335ZM18 9.16669C18.2124 9.16692 18.4167 9.24825 18.5712 9.39406C18.7256 9.53987 18.8185 9.73915 18.831 9.95118C18.8434 10.1632 18.7745 10.372 18.6381 10.5349C18.5018 10.6978 18.3084 10.8024 18.0975 10.8275L18 10.8334H17.1667C16.9543 10.8331 16.75 10.7518 16.5955 10.606C16.4411 10.4602 16.3482 10.2609 16.3357 10.0489C16.3233 9.83682 16.3922 9.62804 16.5286 9.46516C16.6649 9.30228 16.8583 9.19761 17.0692 9.17252L17.1667 9.16669H18ZM5.67751 4.00835L5.75585 4.07752L6.33918 4.66085C6.48864 4.81082 6.57541 5.01205 6.58187 5.22367C6.58833 5.4353 6.514 5.64145 6.37397 5.80025C6.23394 5.95906 6.03872 6.05861 5.82795 6.07869C5.61718 6.09876 5.40667 6.03786 5.23918 5.90835L5.16085 5.83919L4.57751 5.25585C4.43425 5.11225 4.34829 4.92133 4.33573 4.71888C4.32318 4.51643 4.3849 4.31635 4.50931 4.15615C4.63373 3.99595 4.81231 3.88663 5.01157 3.84868C5.21083 3.81073 5.41709 3.84676 5.59168 3.95002L5.67751 4.00835ZM16.4225 4.07752C16.566 4.22101 16.6522 4.41193 16.6649 4.61445C16.6777 4.81697 16.6161 5.01718 16.4917 5.17752L16.4225 5.25585L15.8392 5.83919C15.6892 5.98864 15.488 6.07542 15.2764 6.08188C15.0647 6.08834 14.8586 6.01401 14.6998 5.87398C14.541 5.73395 14.4414 5.53873 14.4213 5.32796C14.4013 5.11719 14.4622 4.90668 14.5917 4.73919L14.6608 4.66085L15.2442 4.07752C15.4005 3.92129 15.6124 3.83353 15.8333 3.83353C16.0543 3.83353 16.2662 3.92129 16.4225 4.07752ZM10.5 1.66669C10.7041 1.66671 10.9011 1.74165 11.0537 1.87728C11.2062 2.01292 11.3036 2.19981 11.3275 2.40252L11.3333 2.50002V3.33335C11.3331 3.54575 11.2518 3.75005 11.106 3.90449C10.9602 4.05894 10.7609 4.15188 10.5489 4.16433C10.3368 4.17678 10.128 4.10779 9.96515 3.97147C9.80227 3.83514 9.6976 3.64177 9.67251 3.43085L9.66668 3.33335V2.50002C9.66668 2.27901 9.75448 2.06704 9.91076 1.91076C10.067 1.75448 10.279 1.66669 10.5 1.66669ZM10.5 5.83335C11.3164 5.83331 12.1148 6.07309 12.7961 6.52294C13.4774 6.97278 14.0115 7.61285 14.3321 8.36365C14.6528 9.11446 14.7458 9.94291 14.5996 10.7461C14.4534 11.5493 14.0745 12.2919 13.5099 12.8816C12.9453 13.4713 12.2199 13.8821 11.4238 14.063C10.6277 14.244 9.79599 14.1871 9.03196 13.8994C8.26793 13.6117 7.60525 13.1059 7.12623 12.4448C6.6472 11.7837 6.37294 10.9965 6.33751 10.1809L6.33335 10L6.33751 9.81919C6.38411 8.74648 6.84302 7.73317 7.61853 6.99057C8.39404 6.24797 9.42629 5.83342 10.5 5.83335Z" fill="current"/>
</g>
<defs>
<clipPath id="clip0_33_35">
<rect width="20" height="20" fill="white" transform="translate(0.5)"/>
</clipPath>
</defs>
</svg>
