<svg width="18" height="18" viewBox="0 0 18 18" fill="none" xmlns="http://www.w3.org/2000/svg">
<g id="jam:write">
<path id="Vector" d="M5.79 12.342L7.11075 11.961L15.063 3.91351C15.1257 3.84923 15.1606 3.76286 15.1602 3.67305C15.1598 3.58324 15.1241 3.49719 15.0607 3.43351L14.5845 2.95201C14.5537 2.92038 14.517 2.89521 14.4763 2.87795C14.4357 2.86069 14.3921 2.85169 14.348 2.85148C14.3038 2.85128 14.2601 2.85986 14.2193 2.87673C14.1786 2.8936 14.1416 2.91843 14.1105 2.94976L6.17925 10.9763L5.78925 12.3413L5.79 12.342ZM15.5272 1.99801L16.0035 2.48026C16.6605 3.14551 16.6665 4.21876 16.0155 4.87726L7.821 13.1708L4.998 13.9838C4.82565 14.032 4.6412 14.0099 4.48512 13.9223C4.32905 13.8347 4.2141 13.6888 4.1655 13.5165C4.12934 13.3927 4.12882 13.2611 4.164 13.137L4.98525 10.257L13.158 1.98526C13.3134 1.82878 13.4984 1.7048 13.7022 1.62057C13.9061 1.53634 14.1246 1.49353 14.3451 1.49465C14.5657 1.49577 14.7838 1.54078 14.9867 1.62708C15.1897 1.71337 15.3734 1.83996 15.5272 1.99801ZM6.888 2.86276C7.26 2.86276 7.5615 3.16801 7.5615 3.54451C7.56209 3.63351 7.54514 3.72175 7.5116 3.8042C7.47807 3.88664 7.42861 3.96166 7.36606 4.02498C7.30351 4.0883 7.22909 4.13866 7.14706 4.1732C7.06503 4.20774 6.977 4.22577 6.888 4.22626H4.194C3.45 4.22626 2.847 4.83676 2.847 5.58901V13.7685C2.847 14.5215 3.45 15.132 4.194 15.132H12.276C13.02 15.132 13.6238 14.5215 13.6238 13.7685V11.0423C13.6238 10.6658 13.9253 10.3605 14.2972 10.3605C14.6692 10.3605 14.9708 10.6658 14.9708 11.043V13.7685C14.9708 15.2745 13.764 16.4955 12.276 16.4955H4.194C2.706 16.4955 1.5 15.2745 1.5 13.7685V5.58901C1.5 4.08376 2.706 2.86276 4.194 2.86276H6.888Z" fill="white"/>
</g>
</svg>
